<svg xmlns="http://www.w3.org/2000/svg" xmlns:xlink="http://www.w3.org/1999/xlink" width="1000" zoomAndPan="magnify" viewBox="0 0 750 749.999995" height="1000" preserveAspectRatio="xMidYMid meet" version="1.0"><defs><g/><clipPath id="f232c36307"><path d="M 0.28125 16 L 172 16 L 172 184 L 0.28125 184 Z M 0.28125 16 " clip-rule="nonzero"/></clipPath><clipPath id="f01bde400b"><rect x="0" width="507" y="0" height="256"/></clipPath><clipPath id="6dafdc20e6"><rect x="0" width="669" y="0" height="522"/></clipPath></defs><rect x="-75" width="900" fill="#ffffff" y="-74.999999" height="899.999994" fill-opacity="1"/><rect x="-75" width="900" fill="#ffffff" y="-74.999999" height="899.999994" fill-opacity="1"/><g transform="matrix(1, 0, 0, 1, 119, 69)"><g clip-path="url(#f01bde400b)"><g clip-path="url(#f232c36307)"><g fill="#000000" fill-opacity="1"><g transform="translate(6.393346, 183.927349)"><g><path d="M 97.40625 -167.765625 L 165.109375 0 L 124.046875 0 L 111.640625 -33.546875 L 47.78125 -33.546875 L 35.375 0 L -5.6875 0 L 62.015625 -167.765625 Z M 98.625 -67.109375 L 79.921875 -115.90625 L 79.5 -115.90625 L 60.796875 -67.109375 Z M 98.625 -67.109375 "/></g></g></g></g><g fill="#000000" fill-opacity="1"><g transform="translate(165.816272, 183.927349)"><g><path d="M 12.203125 0 L 12.203125 -104.3125 L 48.1875 -104.3125 L 48.1875 -93.328125 L 48.59375 -93.328125 C 57.945312 -102.679688 67.910156 -107.359375 78.484375 -107.359375 C 83.640625 -107.359375 88.757812 -106.679688 93.84375 -105.328125 C 98.925781 -103.972656 103.804688 -101.875 108.484375 -99.03125 C 113.160156 -96.1875 116.957031 -92.148438 119.875 -86.921875 C 122.789062 -81.703125 124.25 -75.640625 124.25 -68.734375 L 124.25 0 L 88.25 0 L 88.25 -58.96875 C 88.25 -64.394531 86.519531 -69.140625 83.0625 -73.203125 C 79.601562 -77.265625 75.097656 -79.296875 69.546875 -79.296875 C 64.117188 -79.296875 59.203125 -77.195312 54.796875 -73 C 50.390625 -68.800781 48.1875 -64.125 48.1875 -58.96875 L 48.1875 0 Z M 12.203125 0 "/></g></g></g><g fill="#000000" fill-opacity="1"><g transform="translate(300.227691, 183.927349)"><g><path d="M 22.0625 -12.40625 C 10.46875 -22.707031 4.671875 -35.921875 4.671875 -52.046875 C 4.671875 -68.179688 10.703125 -81.429688 22.765625 -91.796875 C 34.835938 -102.171875 49.753906 -107.359375 67.515625 -107.359375 C 84.992188 -107.359375 99.734375 -102.140625 111.734375 -91.703125 C 123.734375 -81.265625 129.734375 -68.046875 129.734375 -52.046875 C 129.734375 -36.054688 123.867188 -22.875 112.140625 -12.5 C 100.421875 -2.132812 85.546875 3.046875 67.515625 3.046875 C 48.804688 3.046875 33.65625 -2.101562 22.0625 -12.40625 Z M 49.921875 -69.734375 C 45.242188 -65.128906 42.90625 -59.234375 42.90625 -52.046875 C 42.90625 -44.867188 45.140625 -39.007812 49.609375 -34.46875 C 54.085938 -29.925781 59.988281 -27.65625 67.3125 -27.65625 C 74.351562 -27.65625 80.144531 -29.957031 84.6875 -34.5625 C 89.226562 -39.175781 91.5 -45.007812 91.5 -52.0625 C 91.5 -59.238281 89.160156 -65.128906 84.484375 -69.734375 C 79.804688 -74.347656 74.082031 -76.65625 67.3125 -76.65625 C 60.394531 -76.65625 54.597656 -74.347656 49.921875 -69.734375 Z M 49.921875 -69.734375 "/></g></g></g><g fill="#000000" fill-opacity="1"><g transform="translate(434.639095, 183.927349)"><g><path d="M 35.375 -43.515625 C 41.882812 -43.515625 47.410156 -41.242188 51.953125 -36.703125 C 56.492188 -32.160156 58.765625 -26.632812 58.765625 -20.125 C 58.765625 -0.0625 47.378906 19.390625 24.609375 38.234375 L 14.234375 29.6875 C 15.179688 28.875 16.363281 27.65625 17.78125 26.03125 C 19.207031 24.40625 21.3125 21.117188 24.09375 16.171875 C 26.875 11.222656 28.738281 6.238281 29.6875 1.21875 C 24.539062 0 20.335938 -2.539062 17.078125 -6.40625 C 13.828125 -10.269531 12.203125 -14.84375 12.203125 -20.125 C 12.203125 -26.632812 14.472656 -32.160156 19.015625 -36.703125 C 23.554688 -41.242188 29.007812 -43.515625 35.375 -43.515625 Z M 35.375 -43.515625 "/></g></g></g></g></g><g transform="matrix(1, 0, 0, 1, 40, 228)"><g clip-path="url(#6dafdc20e6)"><g fill="#ffd21f" fill-opacity="1"><g transform="translate(9.224236, 403.45476)"><g><path d="M 246.34375 -311.40625 C 246.9375 -311.40625 247.457031 -311.253906 247.90625 -310.953125 C 248.351562 -310.648438 248.726562 -310.5 249.03125 -310.5 C 249.625 -310.5 250.070312 -310.945312 250.375 -311.84375 C 250.375 -312.144531 250.820312 -311.847656 251.71875 -310.953125 C 252.320312 -310.054688 252.921875 -309.609375 253.515625 -309.609375 C 254.117188 -309.609375 254.421875 -309.753906 254.421875 -310.046875 C 255.609375 -311.847656 256.503906 -312.75 257.109375 -312.75 C 257.109375 -312.75 257.179688 -312.671875 257.328125 -312.515625 C 257.484375 -312.367188 257.707031 -312.296875 258 -312.296875 C 259.195312 -311.703125 261.144531 -311.40625 263.84375 -311.40625 C 265.332031 -311.40625 266.597656 -311.328125 267.640625 -311.171875 C 268.691406 -311.023438 269.816406 -310.648438 271.015625 -310.046875 C 271.609375 -309.753906 272.429688 -309.832031 273.484375 -310.28125 C 274.535156 -310.726562 275.507812 -311.101562 276.40625 -311.40625 C 278.195312 -311.40625 279.691406 -310.953125 280.890625 -310.046875 C 281.785156 -309.753906 282.609375 -309.382812 283.359375 -308.9375 C 284.109375 -308.488281 284.929688 -308.265625 285.828125 -308.265625 C 286.722656 -308.265625 287.320312 -308.410156 287.625 -308.703125 C 287.914062 -309.003906 288.363281 -309.15625 288.96875 -309.15625 C 289.5625 -309.15625 290.304688 -309.003906 291.203125 -308.703125 C 292.097656 -308.410156 292.847656 -308.265625 293.453125 -308.265625 C 294.347656 -308.265625 294.945312 -308.410156 295.25 -308.703125 C 296.445312 -309.304688 297.34375 -309.609375 297.9375 -309.609375 C 298.832031 -309.609375 299.878906 -309.304688 301.078125 -308.703125 C 301.679688 -308.703125 302.207031 -308.703125 302.65625 -308.703125 C 303.101562 -308.703125 303.472656 -308.703125 303.765625 -308.703125 C 304.960938 -308.703125 305.863281 -307.957031 306.46875 -306.46875 C 307.664062 -307.0625 308.5625 -307.359375 309.15625 -307.359375 C 310.050781 -307.359375 310.875 -307.207031 311.625 -306.90625 C 312.375 -306.613281 313.046875 -306.316406 313.640625 -306.015625 C 314.242188 -305.421875 314.992188 -305.195312 315.890625 -305.34375 C 316.785156 -305.488281 317.679688 -305.113281 318.578125 -304.21875 C 316.785156 -303.914062 314.988281 -303.691406 313.1875 -303.546875 C 311.394531 -303.398438 309.753906 -303.328125 308.265625 -303.328125 C 305.265625 -303.328125 302.492188 -303.550781 299.953125 -304 C 297.410156 -304.445312 294.796875 -304.96875 292.109375 -305.5625 L 228.84375 -305.5625 C 226.445312 -305.5625 224.800781 -305.113281 223.90625 -304.21875 C 222.707031 -303.914062 221.660156 -303.613281 220.765625 -303.3125 C 219.867188 -303.019531 218.820312 -302.875 217.625 -302.875 C 216.425781 -302.875 215.523438 -303.023438 214.921875 -303.328125 C 214.023438 -303.921875 213.203125 -303.84375 212.453125 -303.09375 C 211.710938 -302.351562 210.894531 -301.984375 210 -301.984375 C 207.90625 -301.984375 205.804688 -301.832031 203.703125 -301.53125 C 201.609375 -301.226562 199.515625 -300.925781 197.421875 -300.625 C 195.929688 -300.625 194.507812 -300.472656 193.15625 -300.171875 C 191.8125 -299.878906 190.394531 -299.734375 188.90625 -299.734375 C 188.300781 -299.734375 187.773438 -299.804688 187.328125 -299.953125 C 186.878906 -300.109375 186.359375 -300.1875 185.765625 -300.1875 C 185.460938 -300.1875 185.085938 -300.1875 184.640625 -300.1875 C 184.191406 -300.1875 183.671875 -300.1875 183.078125 -300.1875 C 181.878906 -300.1875 180.753906 -300.109375 179.703125 -299.953125 C 178.660156 -299.804688 177.539062 -299.285156 176.34375 -298.390625 C 176.039062 -298.085938 175.441406 -297.9375 174.546875 -297.9375 C 174.242188 -297.9375 173.941406 -297.9375 173.640625 -297.9375 C 173.347656 -297.9375 172.898438 -297.9375 172.296875 -297.9375 C 170.203125 -297.9375 167.882812 -297.632812 165.34375 -297.03125 C 162.800781 -296.4375 160.332031 -296.140625 157.9375 -296.140625 C 156.445312 -296.140625 153.976562 -295.765625 150.53125 -295.015625 C 147.09375 -294.273438 143.726562 -293.378906 140.4375 -292.328125 C 137.15625 -291.285156 134.765625 -290.3125 133.265625 -289.40625 C 132.671875 -288.8125 132.070312 -288.210938 131.46875 -287.609375 C 130.875 -287.015625 130.425781 -286.269531 130.125 -285.375 C 129.820312 -283.875 129.519531 -282.453125 129.21875 -281.109375 C 128.925781 -279.765625 128.78125 -278.34375 128.78125 -276.84375 C 129.070312 -275.050781 128.921875 -273.179688 128.328125 -271.234375 C 127.734375 -269.296875 127.285156 -267.28125 126.984375 -265.1875 C 125.785156 -258.601562 124.585938 -251.867188 123.390625 -244.984375 C 122.191406 -238.109375 120.847656 -231.226562 119.359375 -224.34375 C 118.160156 -218.96875 116.960938 -213.507812 115.765625 -207.96875 C 114.566406 -202.4375 113.671875 -196.828125 113.078125 -191.140625 C 113.078125 -189.347656 112.851562 -187.554688 112.40625 -185.765625 C 111.957031 -183.972656 111.429688 -182.328125 110.828125 -180.828125 C 110.523438 -178.734375 110 -176.710938 109.25 -174.765625 C 108.507812 -172.828125 107.988281 -170.8125 107.6875 -168.71875 C 107.6875 -166.625 107.382812 -164.601562 106.78125 -162.65625 C 106.1875 -160.707031 106.039062 -158.539062 106.34375 -156.15625 C 106.34375 -156.15625 106.34375 -156.078125 106.34375 -155.921875 C 106.34375 -155.773438 106.191406 -155.550781 105.890625 -155.25 C 104.097656 -150.757812 103.050781 -146.195312 102.75 -141.5625 C 102.445312 -136.925781 101.550781 -132.363281 100.0625 -127.875 C 98.5625 -123.09375 97.4375 -118.304688 96.6875 -113.515625 C 95.945312 -108.734375 95.128906 -103.945312 94.234375 -99.15625 C 94.234375 -97.664062 93.929688 -96.320312 93.328125 -95.125 C 92.429688 -92.4375 91.832031 -89.742188 91.53125 -87.046875 C 91.238281 -84.359375 90.941406 -81.664062 90.640625 -78.96875 C 90.335938 -76.875 89.960938 -74.78125 89.515625 -72.6875 C 89.066406 -70.59375 88.546875 -68.5 87.953125 -66.40625 C 87.648438 -64.914062 87.273438 -63.421875 86.828125 -61.921875 C 86.378906 -60.421875 85.851562 -58.925781 85.25 -57.4375 C 84.957031 -56.238281 84.660156 -54.960938 84.359375 -53.609375 C 84.054688 -52.265625 83.90625 -50.847656 83.90625 -49.359375 L 83.90625 -46.671875 C 82.707031 -44.273438 81.882812 -41.804688 81.4375 -39.265625 C 80.988281 -36.722656 80.613281 -34.101562 80.3125 -31.40625 C 80.3125 -31.101562 79.785156 -28.929688 78.734375 -24.890625 C 77.691406 -20.859375 76.722656 -16.894531 75.828125 -13 C 74.929688 -9.113281 74.332031 -6.875 74.03125 -6.28125 C 73.738281 -4.488281 73.363281 -2.769531 72.90625 -1.125 C 72.457031 0.519531 72.085938 2.390625 71.796875 4.484375 C 71.191406 8.367188 70.363281 12.179688 69.3125 15.921875 C 68.269531 19.660156 67.300781 23.328125 66.40625 26.921875 C 65.507812 29.609375 63.863281 30.953125 61.46875 30.953125 C 61.175781 30.953125 60.878906 30.878906 60.578125 30.734375 C 60.273438 30.585938 59.972656 30.515625 59.671875 30.515625 C 58.472656 29.910156 57.128906 29.007812 55.640625 27.8125 C 52.941406 26.320312 51.441406 24.753906 51.140625 23.109375 C 50.847656 21.460938 50.851562 19.441406 51.15625 17.046875 C 52.644531 10.765625 54.210938 4.410156 55.859375 -2.015625 C 57.503906 -8.453125 58.925781 -14.957031 60.125 -21.53125 C 61.019531 -26.914062 62.210938 -33.195312 63.703125 -40.375 C 65.203125 -47.5625 66.847656 -54.816406 68.640625 -62.140625 C 70.441406 -69.472656 72.09375 -75.679688 73.59375 -80.765625 C 73.59375 -84.054688 74.039062 -87.195312 74.9375 -90.1875 C 75.832031 -93.175781 76.429688 -96.164062 76.734375 -99.15625 C 77.328125 -103.34375 78 -107.601562 78.75 -111.9375 C 79.5 -116.28125 80.171875 -120.398438 80.765625 -124.296875 C 81.660156 -130.273438 82.707031 -136.253906 83.90625 -142.234375 C 85.101562 -148.222656 86.300781 -154.054688 87.5 -159.734375 C 88.695312 -161.535156 89.144531 -163.40625 88.84375 -165.34375 C 88.539062 -167.289062 88.988281 -169.160156 90.1875 -170.953125 C 90.488281 -175.140625 91.160156 -179.253906 92.203125 -183.296875 C 93.253906 -187.335938 93.929688 -191.300781 94.234375 -195.1875 C 94.828125 -199.070312 95.5 -202.804688 96.25 -206.390625 C 97 -209.984375 97.671875 -213.578125 98.265625 -217.171875 L 100.953125 -233.328125 C 101.554688 -235.722656 102.003906 -237.96875 102.296875 -240.0625 C 102.597656 -242.15625 102.898438 -244.25 103.203125 -246.34375 C 103.796875 -249.632812 104.390625 -252.773438 104.984375 -255.765625 C 105.585938 -258.753906 106.039062 -261.742188 106.34375 -264.734375 C 106.644531 -266.828125 107.019531 -268.921875 107.46875 -271.015625 C 107.914062 -273.109375 108.140625 -275.203125 108.140625 -277.296875 C 107.835938 -278.191406 107.6875 -279.238281 107.6875 -280.4375 C 96.019531 -277.445312 84.800781 -273.859375 74.03125 -269.671875 C 72.539062 -269.367188 69.328125 -268.320312 64.390625 -266.53125 C 59.453125 -264.738281 54.066406 -262.71875 48.234375 -260.46875 C 42.398438 -258.226562 37.3125 -256.132812 32.96875 -254.1875 C 28.632812 -252.25 26.171875 -250.828125 25.578125 -249.921875 C 24.378906 -248.429688 22.734375 -247.609375 20.640625 -247.453125 C 18.546875 -247.304688 16.75 -246.785156 15.25 -245.890625 L 14.359375 -245.890625 C 14.054688 -245.585938 13.609375 -245.4375 13.015625 -245.4375 C 12.410156 -245.4375 11.660156 -245.8125 10.765625 -246.5625 C 9.867188 -247.3125 8.972656 -247.382812 8.078125 -246.78125 C 7.179688 -246.1875 6.207031 -245.8125 5.15625 -245.65625 C 4.113281 -245.507812 3.144531 -245.4375 2.25 -245.4375 C -0.144531 -246.039062 -1.191406 -247.535156 -0.890625 -249.921875 C 0.00390625 -254.109375 1.421875 -256.953125 3.359375 -258.453125 C 5.304688 -259.953125 7.925781 -261.296875 11.21875 -262.484375 C 14.8125 -263.984375 18.328125 -265.40625 21.765625 -266.75 C 25.203125 -268.09375 28.566406 -269.515625 31.859375 -271.015625 C 34.847656 -272.515625 37.835938 -273.632812 40.828125 -274.375 C 43.816406 -275.125 46.8125 -275.945312 49.8125 -276.84375 C 50.40625 -277.445312 51.222656 -277.75 52.265625 -277.75 C 53.316406 -277.75 53.992188 -278.046875 54.296875 -278.640625 C 58.484375 -281.335938 63.039062 -283.054688 67.96875 -283.796875 C 72.90625 -284.546875 77.46875 -285.96875 81.65625 -288.0625 C 85.851562 -288.957031 90.046875 -290.15625 94.234375 -291.65625 C 98.421875 -293.15625 102.457031 -294.648438 106.34375 -296.140625 C 109.9375 -297.035156 112.476562 -298.832031 113.96875 -301.53125 C 115.46875 -303.320312 116.960938 -304.21875 118.453125 -304.21875 C 119.347656 -304.21875 120.097656 -304.066406 120.703125 -303.765625 C 121.898438 -303.472656 123.019531 -303.101562 124.0625 -302.65625 C 125.113281 -302.207031 126.238281 -301.984375 127.4375 -301.984375 C 128.925781 -301.984375 130.570312 -302.429688 132.375 -303.328125 C 136.5625 -303.328125 140.375 -304.070312 143.8125 -305.5625 C 147.25 -307.0625 150.910156 -307.960938 154.796875 -308.265625 C 156.597656 -308.859375 157.644531 -309.003906 157.9375 -308.703125 C 158.84375 -308.109375 160.039062 -307.8125 161.53125 -307.8125 C 162.425781 -307.8125 163.320312 -307.957031 164.21875 -308.25 C 165.125 -308.550781 165.875 -308.851562 166.46875 -309.15625 C 169.15625 -310.65625 172.296875 -311.40625 175.890625 -311.40625 C 176.484375 -311.40625 177.15625 -311.40625 177.90625 -311.40625 C 178.65625 -311.40625 179.332031 -311.40625 179.9375 -311.40625 C 181.425781 -311.40625 182.769531 -311.476562 183.96875 -311.625 C 185.164062 -311.769531 186.363281 -312.144531 187.5625 -312.75 C 189.351562 -313.039062 191.144531 -313.1875 192.9375 -313.1875 C 194.738281 -313.1875 196.535156 -313.1875 198.328125 -313.1875 C 200.117188 -313.1875 201.910156 -313.1875 203.703125 -313.1875 C 205.503906 -313.1875 207.300781 -313.039062 209.09375 -312.75 C 209.695312 -312.144531 210.296875 -311.84375 210.890625 -311.84375 C 211.484375 -311.84375 212.15625 -312.066406 212.90625 -312.515625 C 213.65625 -312.960938 214.476562 -313.1875 215.375 -313.1875 C 216.875 -313.1875 218.296875 -313.1875 219.640625 -313.1875 C 220.984375 -313.1875 222.253906 -313.1875 223.453125 -313.1875 C 224.347656 -313.1875 225.171875 -313.035156 225.921875 -312.734375 C 226.671875 -312.441406 227.34375 -312.296875 227.9375 -312.296875 C 228.832031 -312.296875 229.429688 -312.445312 229.734375 -312.75 C 230.035156 -313.039062 230.632812 -313.1875 231.53125 -313.1875 C 232.425781 -313.1875 233.023438 -313.039062 233.328125 -312.75 C 233.921875 -312.75 234.664062 -312.523438 235.5625 -312.078125 C 236.46875 -311.628906 237.367188 -311.550781 238.265625 -311.84375 C 238.859375 -311.84375 239.53125 -312.066406 240.28125 -312.515625 C 241.03125 -312.960938 241.851562 -313.1875 242.75 -313.1875 C 244.84375 -312.59375 246.039062 -312 246.34375 -311.40625 Z M 69.09375 -43.96875 C 68.5 -43.070312 68.273438 -42.175781 68.421875 -41.28125 C 68.578125 -40.382812 68.65625 -39.632812 68.65625 -39.03125 C 70.445312 -39.632812 70.59375 -41.28125 69.09375 -43.96875 Z M 244.09375 -310.953125 C 243.789062 -310.953125 243.640625 -310.800781 243.640625 -310.5 C 243.640625 -310.195312 243.640625 -310.046875 243.640625 -310.046875 C 243.941406 -310.046875 244.09375 -309.972656 244.09375 -309.828125 C 244.09375 -309.679688 244.242188 -309.609375 244.546875 -309.609375 C 245.441406 -309.609375 246.039062 -310.207031 246.34375 -311.40625 C 245.738281 -311.101562 244.988281 -310.953125 244.09375 -310.953125 Z M 74.484375 -74.9375 L 74.484375 -75.828125 L 74.03125 -75.828125 Z M 67.75 -2.25 L 67.3125 -2.6875 L 67.3125 -2.25 Z M 90.1875 -126.53125 L 89.734375 -126.53125 L 90.1875 -126.078125 Z M 84.359375 -126.53125 L 85.25 -126.53125 Z M 70.890625 -50.703125 L 70.890625 -51.59375 Z M 70.890625 -50.703125 "/></g></g></g><g fill="#ffd21f" fill-opacity="1"><g transform="translate(142.487685, 403.45476)"><g><path d="M 70 -56.09375 C 69.695312 -54.59375 69.171875 -53.019531 68.421875 -51.375 C 67.679688 -49.726562 66.5625 -48.609375 65.0625 -48.015625 C 65.363281 -46.816406 65.289062 -45.84375 64.84375 -45.09375 C 64.394531 -44.34375 63.867188 -43.519531 63.265625 -42.625 C 61.171875 -39.632812 59.828125 -37.09375 59.234375 -35 C 58.628906 -33.800781 57.953125 -32.601562 57.203125 -31.40625 C 56.460938 -30.207031 55.941406 -28.863281 55.640625 -27.375 C 55.335938 -26.175781 54.515625 -24.976562 53.171875 -23.78125 C 51.828125 -22.582031 51.453125 -21.085938 52.046875 -19.296875 C 51.148438 -18.097656 50.175781 -16.972656 49.125 -15.921875 C 48.082031 -14.878906 47.265625 -13.609375 46.671875 -12.109375 C 46.367188 -11.210938 45.691406 -10.539062 44.640625 -10.09375 C 43.597656 -9.644531 42.773438 -9.125 42.171875 -8.53125 C 40.378906 -5.53125 36.414062 -1.9375 30.28125 2.25 C 24.15625 6.4375 19.445312 9.273438 16.15625 10.765625 C 14.957031 11.367188 13.757812 11.742188 12.5625 11.890625 C 11.363281 12.035156 10.164062 12.257812 8.96875 12.5625 C 6.875 12.5625 5.082031 11.8125 3.59375 10.3125 L 0.453125 7.171875 C -6.128906 1.492188 -9.421875 -5.832031 -9.421875 -14.8125 C -9.421875 -28.269531 -8.375 -39.707031 -6.28125 -49.125 C -4.1875 -58.550781 -1.195312 -69.394531 2.6875 -81.65625 C 3.289062 -82.851562 3.890625 -83.753906 4.484375 -84.359375 C 7.179688 -90.335938 10.25 -96.46875 13.6875 -102.75 C 17.125 -109.03125 21.238281 -114.265625 26.03125 -118.453125 C 27.519531 -119.648438 28.414062 -121.070312 28.71875 -122.71875 C 29.019531 -124.363281 30.066406 -125.632812 31.859375 -126.53125 C 34.253906 -127.425781 36.195312 -129.519531 37.6875 -132.8125 C 37.6875 -133.113281 37.988281 -133.5625 38.59375 -134.15625 C 40.976562 -135.0625 43.066406 -136.410156 44.859375 -138.203125 C 46.660156 -139.992188 48.457031 -141.640625 50.25 -143.140625 C 54.4375 -146.722656 58.921875 -149.257812 63.703125 -150.75 C 68.492188 -152.25 73.582031 -153.148438 78.96875 -153.453125 C 82.257812 -153.453125 85.550781 -153.300781 88.84375 -153 C 92.132812 -152.707031 95.273438 -151.8125 98.265625 -150.3125 C 98.859375 -150.007812 99.609375 -149.859375 100.515625 -149.859375 C 101.410156 -149.859375 102.003906 -150.007812 102.296875 -150.3125 C 103.796875 -151.207031 105.144531 -151.65625 106.34375 -151.65625 C 107.539062 -151.65625 108.660156 -151.351562 109.703125 -150.75 C 110.753906 -150.15625 111.878906 -149.5625 113.078125 -148.96875 C 113.671875 -145.976562 113.742188 -143.0625 113.296875 -140.21875 C 112.847656 -137.375 111.875 -134.609375 110.375 -131.921875 C 107.988281 -127.128906 105.597656 -120.84375 103.203125 -113.0625 C 100.804688 -105.289062 98.5625 -96.84375 96.46875 -87.71875 C 94.375 -78.59375 92.65625 -69.84375 91.3125 -61.46875 C 89.96875 -53.09375 89.296875 -45.914062 89.296875 -39.9375 C 89.296875 -32.457031 91.238281 -26.175781 95.125 -21.09375 C 96.019531 -20.789062 97.363281 -20.640625 99.15625 -20.640625 C 102.15625 -20.640625 104.847656 -21.238281 107.234375 -22.4375 C 111.421875 -24.53125 115.535156 -26.847656 119.578125 -29.390625 C 123.617188 -31.929688 127.582031 -34.550781 131.46875 -37.25 L 132.8125 -37.25 C 133.707031 -37.25 133.707031 -36.796875 132.8125 -35.890625 C 131.613281 -34.691406 130.117188 -33.5 128.328125 -32.3125 C 127.734375 -31.707031 127.4375 -30.878906 127.4375 -29.828125 C 127.4375 -28.785156 126.984375 -27.96875 126.078125 -27.375 C 124.890625 -26.175781 122.425781 -24.003906 118.6875 -20.859375 C 114.945312 -17.722656 111.128906 -14.882812 107.234375 -12.34375 C 103.347656 -9.800781 100.359375 -8.53125 98.265625 -8.53125 C 97.671875 -8.53125 96.773438 -8.828125 95.578125 -9.421875 C 95.273438 -9.722656 94.898438 -9.875 94.453125 -9.875 C 94.003906 -9.875 93.628906 -10.019531 93.328125 -10.3125 C 88.546875 -14.507812 84.429688 -18.925781 80.984375 -23.5625 C 77.546875 -28.195312 75.675781 -33.804688 75.375 -40.390625 C 75.082031 -41.878906 74.710938 -43.296875 74.265625 -44.640625 C 73.816406 -45.992188 73.59375 -47.265625 73.59375 -48.453125 L 73.59375 -56.984375 C 73.59375 -58.484375 73.21875 -59.378906 72.46875 -59.671875 C 71.71875 -59.972656 71.046875 -60.273438 70.453125 -60.578125 C 70.148438 -60.578125 69.921875 -60.648438 69.765625 -60.796875 C 69.617188 -60.953125 69.546875 -61.03125 69.546875 -61.03125 C 68.953125 -61.03125 68.65625 -60.429688 68.65625 -59.234375 L 68.65625 -58.328125 C 69.851562 -57.734375 70.300781 -56.988281 70 -56.09375 Z M 9.875 0.890625 C 16.75 -3.585938 23.398438 -8.441406 29.828125 -13.671875 C 36.265625 -18.910156 41.726562 -25.125 46.21875 -32.3125 C 47.707031 -35 49.273438 -37.613281 50.921875 -40.15625 C 52.566406 -42.695312 53.988281 -45.316406 55.1875 -48.015625 C 56.976562 -50.703125 58.769531 -53.390625 60.5625 -56.078125 C 62.363281 -58.773438 63.863281 -61.617188 65.0625 -64.609375 C 67.457031 -69.398438 69.703125 -74.035156 71.796875 -78.515625 C 73.890625 -83.003906 75.984375 -87.492188 78.078125 -91.984375 C 79.566406 -94.972656 81.359375 -99.535156 83.453125 -105.671875 C 85.546875 -111.804688 86.742188 -116.367188 87.046875 -119.359375 C 87.648438 -122.347656 88.546875 -125.1875 89.734375 -127.875 C 90.929688 -130.570312 92.128906 -133.265625 93.328125 -135.953125 C 94.523438 -138.648438 93.925781 -140.894531 91.53125 -142.6875 C 90.632812 -143.582031 89.890625 -144.03125 89.296875 -144.03125 C 88.992188 -144.03125 88.09375 -143.582031 86.59375 -142.6875 C 83.007812 -139.09375 78.972656 -136.398438 74.484375 -134.609375 C 70.597656 -133.117188 66.929688 -131.175781 63.484375 -128.78125 C 60.046875 -126.382812 56.679688 -123.988281 53.390625 -121.59375 C 51.296875 -120.101562 49.425781 -118.3125 47.78125 -116.21875 C 46.132812 -114.125 44.414062 -112.328125 42.625 -110.828125 C 40.53125 -109.035156 38.734375 -107.015625 37.234375 -104.765625 C 35.742188 -102.523438 33.800781 -100.65625 31.40625 -99.15625 C 31.101562 -98.863281 30.953125 -98.566406 30.953125 -98.265625 C 30.953125 -97.960938 30.804688 -97.664062 30.515625 -97.375 C 30.210938 -95.28125 29.390625 -93.410156 28.046875 -91.765625 C 26.703125 -90.117188 25.578125 -88.25 24.671875 -86.15625 C 24.378906 -85.257812 23.929688 -84.4375 23.328125 -83.6875 C 22.734375 -82.9375 22.132812 -82.113281 21.53125 -81.21875 C 20.34375 -79.125 19.375 -76.804688 18.625 -74.265625 C 17.875 -71.722656 16.898438 -69.253906 15.703125 -66.859375 C 13.910156 -62.972656 12.5625 -59.007812 11.65625 -54.96875 C 10.757812 -50.925781 9.566406 -46.8125 8.078125 -42.625 C 7.773438 -41.425781 7.546875 -40.226562 7.390625 -39.03125 C 7.242188 -37.84375 6.875 -36.648438 6.28125 -35.453125 C 5.976562 -32.160156 5.675781 -28.941406 5.375 -25.796875 C 5.082031 -22.660156 4.488281 -19.445312 3.59375 -16.15625 C 2.988281 -14.65625 2.988281 -13.457031 3.59375 -12.5625 C 4.1875 -11.0625 4.554688 -9.488281 4.703125 -7.84375 C 4.859375 -6.207031 4.9375 -4.640625 4.9375 -3.140625 C 4.9375 -1.640625 5.234375 -0.59375 5.828125 0 C 5.828125 0 6.425781 0.597656 7.625 1.796875 C 8.226562 1.492188 8.675781 1.34375 8.96875 1.34375 C 9.269531 1.34375 9.570312 1.191406 9.875 0.890625 Z M 65.0625 -52.953125 C 65.0625 -52.648438 65.132812 -52.5 65.28125 -52.5 C 65.4375 -52.5 65.515625 -52.347656 65.515625 -52.046875 C 66.109375 -52.648438 66.40625 -53.097656 66.40625 -53.390625 L 65.515625 -54.296875 C 65.515625 -53.691406 65.363281 -53.242188 65.0625 -52.953125 Z M 13.90625 -95.578125 L 14.359375 -95.125 L 14.359375 -95.578125 Z M 73.140625 -67.75 L 72.6875 -68.203125 L 72.6875 -67.75 Z M 12.5625 -92.4375 L 12.109375 -91.984375 L 12.5625 -91.984375 Z M 56.984375 -38.140625 L 56.984375 -39.03125 Z M 56.984375 -38.140625 "/></g></g></g><g fill="#ffd21f" fill-opacity="1"><g transform="translate(270.366821, 403.45476)"><g><path d="M 54.296875 -116.21875 C 51.898438 -115.613281 50.253906 -114.414062 49.359375 -112.625 C 48.460938 -111.125 47.5625 -109.773438 46.65625 -108.578125 C 45.757812 -107.390625 44.863281 -106.046875 43.96875 -104.546875 C 43.375 -103.648438 43 -102.675781 42.84375 -101.625 C 42.695312 -100.582031 41.878906 -99.757812 40.390625 -99.15625 C 39.484375 -98.863281 39.328125 -98.34375 39.921875 -97.59375 C 40.523438 -96.84375 40.53125 -96.171875 39.9375 -95.578125 C 38.144531 -93.179688 36.425781 -90.859375 34.78125 -88.609375 C 33.132812 -86.367188 32.007812 -83.753906 31.40625 -80.765625 C 31.40625 -80.460938 31.179688 -80.085938 30.734375 -79.640625 C 30.285156 -79.191406 29.910156 -78.671875 29.609375 -78.078125 C 27.515625 -76.273438 25.867188 -74.175781 24.671875 -71.78125 C 23.484375 -69.394531 22.4375 -66.859375 21.53125 -64.171875 C 20.9375 -62.671875 20.335938 -61.019531 19.734375 -59.21875 C 19.140625 -57.425781 18.691406 -55.632812 18.390625 -53.84375 C 19.890625 -54.144531 20.9375 -55.34375 21.53125 -57.4375 C 22.132812 -58.925781 22.882812 -60.34375 23.78125 -61.6875 C 24.675781 -63.039062 25.722656 -64.164062 26.921875 -65.0625 C 27.816406 -65.957031 28.5625 -67.003906 29.15625 -68.203125 C 29.757812 -69.398438 30.210938 -70.597656 30.515625 -71.796875 C 31.109375 -72.691406 31.703125 -73.585938 32.296875 -74.484375 C 32.898438 -75.378906 33.351562 -76.273438 33.65625 -77.171875 C 34.550781 -77.171875 35 -77.171875 35 -77.171875 C 36.195312 -76.578125 36.796875 -75.976562 36.796875 -75.375 C 36.492188 -74.1875 36.039062 -72.914062 35.4375 -71.5625 C 34.84375 -70.21875 34.25 -68.800781 33.65625 -67.3125 C 32.457031 -63.71875 31.109375 -60.125 29.609375 -56.53125 C 28.117188 -52.945312 26.175781 -49.660156 23.78125 -46.671875 C 22.28125 -44.867188 21.15625 -42.847656 20.40625 -40.609375 C 19.664062 -38.367188 18.546875 -36.050781 17.046875 -33.65625 C 15.554688 -31.257812 14.359375 -28.640625 13.453125 -25.796875 C 12.554688 -22.953125 11.507812 -20.1875 10.3125 -17.5 C 8.820312 -13.3125 7.925781 -9.421875 7.625 -5.828125 C 7.03125 -1.046875 5.984375 3.140625 4.484375 6.734375 C 3.585938 7.628906 2.539062 8.078125 1.34375 8.078125 C -1.945312 6.878906 -3.738281 4.9375 -4.03125 2.25 C -4.332031 1.050781 -4.484375 -0.144531 -4.484375 -1.34375 C -4.484375 -2.539062 -4.484375 -3.585938 -4.484375 -4.484375 C -4.785156 -4.484375 -5.007812 -4.554688 -5.15625 -4.703125 C -5.3125 -4.859375 -5.390625 -4.9375 -5.390625 -4.9375 C -5.984375 -4.9375 -6.425781 -4.785156 -6.71875 -4.484375 C -7.019531 -4.179688 -7.472656 -3.734375 -8.078125 -3.140625 L -8.96875 -4.03125 C -7.769531 -6.726562 -7.320312 -9.570312 -7.625 -12.5625 C -7.925781 -15.257812 -7.703125 -17.953125 -6.953125 -20.640625 C -6.203125 -23.328125 -5.679688 -26.019531 -5.390625 -28.71875 C -4.484375 -30.207031 -4.101562 -31.773438 -4.25 -33.421875 C -4.40625 -35.066406 -4.1875 -36.488281 -3.59375 -37.6875 C -2.988281 -39.1875 -2.6875 -40.609375 -2.6875 -41.953125 C -2.6875 -43.296875 -2.539062 -44.71875 -2.25 -46.21875 L 1.796875 -62.375 C 2.691406 -66.851562 4.035156 -70.890625 5.828125 -74.484375 C 6.429688 -75.679688 6.878906 -76.878906 7.171875 -78.078125 C 7.472656 -79.273438 7.175781 -80.617188 6.28125 -82.109375 C 5.6875 -83.609375 5.835938 -85.253906 6.734375 -87.046875 C 8.222656 -90.640625 9.34375 -94.304688 10.09375 -98.046875 C 10.84375 -101.785156 11.96875 -105.445312 13.46875 -109.03125 C 14.363281 -110.832031 15.109375 -112.628906 15.703125 -114.421875 C 16.304688 -116.210938 16.753906 -118.15625 17.046875 -120.25 C 17.347656 -122.644531 17.875 -124.890625 18.625 -126.984375 C 19.375 -129.078125 20.195312 -131.171875 21.09375 -133.265625 C 22.582031 -137.453125 24.222656 -141.785156 26.015625 -146.265625 C 27.816406 -150.753906 29.316406 -155.242188 30.515625 -159.734375 C 30.515625 -159.734375 30.515625 -159.804688 30.515625 -159.953125 C 30.515625 -160.109375 30.660156 -160.335938 30.953125 -160.640625 C 31.554688 -161.835938 32.457031 -162.132812 33.65625 -161.53125 C 35.144531 -160.332031 36.710938 -159.132812 38.359375 -157.9375 C 40.003906 -156.75 41.578125 -155.554688 43.078125 -154.359375 C 43.972656 -154.054688 44.867188 -153.601562 45.765625 -153 C 46.660156 -152.40625 47.257812 -151.507812 47.5625 -150.3125 C 48.15625 -147.625 47.859375 -145.234375 46.671875 -143.140625 C 46.066406 -141.941406 45.460938 -140.664062 44.859375 -139.3125 C 44.265625 -137.96875 43.671875 -136.550781 43.078125 -135.0625 C 41.578125 -130.269531 40.003906 -125.554688 38.359375 -120.921875 C 36.710938 -116.285156 34.84375 -111.722656 32.75 -107.234375 C 32.457031 -106.335938 32.234375 -105.515625 32.078125 -104.765625 C 31.929688 -104.023438 32.007812 -103.203125 32.3125 -102.296875 C 32.90625 -102.597656 33.648438 -103.195312 34.546875 -104.09375 L 37.25 -105.890625 C 37.25 -105.890625 37.394531 -105.890625 37.6875 -105.890625 C 37.6875 -105.890625 37.613281 -105.8125 37.46875 -105.65625 C 37.320312 -105.507812 37.25 -105.4375 37.25 -105.4375 L 37.25 -102.296875 C 38.4375 -102.597656 39.40625 -103.195312 40.15625 -104.09375 C 40.90625 -104.988281 41.429688 -105.890625 41.734375 -106.796875 C 43.222656 -108.890625 44.640625 -110.90625 45.984375 -112.84375 C 47.335938 -114.789062 48.757812 -116.515625 50.25 -118.015625 C 50.550781 -118.609375 50.703125 -119.203125 50.703125 -119.796875 C 50.703125 -120.398438 50.851562 -120.851562 51.15625 -121.15625 C 49.351562 -120.550781 48.15625 -119.953125 47.5625 -119.359375 C 47.5625 -118.460938 46.960938 -118.015625 45.765625 -118.015625 L 45.765625 -117.5625 C 45.765625 -118.757812 46.363281 -119.359375 47.5625 -119.359375 C 47.5625 -120.554688 47.710938 -121.453125 48.015625 -122.046875 C 49.503906 -123.546875 50.992188 -125.191406 52.484375 -126.984375 C 53.984375 -128.773438 55.78125 -130.269531 57.875 -131.46875 L 57.875 -128.328125 C 62.96875 -131.617188 67.609375 -136.109375 71.796875 -141.796875 L 68.203125 -141.796875 C 69.703125 -144.179688 71.421875 -146.347656 73.359375 -148.296875 C 75.304688 -150.242188 77.328125 -151.960938 79.421875 -153.453125 C 80.015625 -153.753906 80.910156 -153.90625 82.109375 -153.90625 C 82.710938 -155.40625 83.6875 -156.523438 85.03125 -157.265625 C 86.375 -158.015625 87.796875 -158.539062 89.296875 -158.84375 C 90.191406 -158.84375 90.640625 -158.394531 90.640625 -157.5 C 90.941406 -157.5 91.238281 -157.5 91.53125 -157.5 C 91.832031 -157.5 92.132812 -157.5 92.4375 -157.5 C 93.03125 -157.5 93.175781 -158.097656 92.875 -159.296875 C 92.875 -160.484375 93.921875 -161.078125 96.015625 -161.078125 C 97.210938 -161.078125 98.257812 -160.628906 99.15625 -159.734375 C 100.957031 -158.242188 102.679688 -156.675781 104.328125 -155.03125 C 105.972656 -153.382812 107.09375 -151.363281 107.6875 -148.96875 C 106.789062 -147.769531 105.96875 -146.421875 105.21875 -144.921875 C 104.46875 -143.429688 103.644531 -141.9375 102.75 -140.4375 C 101.851562 -138.945312 100.957031 -137.453125 100.0625 -135.953125 C 99.164062 -134.460938 98.414062 -132.96875 97.8125 -131.46875 C 97.21875 -130.570312 96.617188 -129.75 96.015625 -129 C 95.421875 -128.25 94.675781 -127.578125 93.78125 -126.984375 C 91.082031 -126.085938 90.484375 -124.144531 91.984375 -121.15625 C 92.578125 -120.550781 92.128906 -119.953125 90.640625 -119.359375 L 89.734375 -118.453125 C 89.140625 -119.054688 89.441406 -119.359375 90.640625 -119.359375 C 90.335938 -119.648438 90.1875 -119.867188 90.1875 -120.015625 C 90.1875 -120.171875 90.035156 -120.398438 89.734375 -120.703125 C 89.441406 -121.296875 88.992188 -121.59375 88.390625 -121.59375 C 87.796875 -121.59375 87.648438 -122.039062 87.953125 -122.9375 C 88.546875 -124.4375 89.066406 -126.082031 89.515625 -127.875 C 89.960938 -129.675781 90.335938 -131.320312 90.640625 -132.8125 C 90.941406 -133.414062 91.09375 -134.015625 91.09375 -134.609375 C 91.09375 -135.210938 91.238281 -135.660156 91.53125 -135.953125 C 90.9375 -136.554688 90.335938 -136.859375 89.734375 -136.859375 C 89.140625 -136.859375 88.46875 -136.632812 87.71875 -136.1875 C 86.96875 -135.738281 86.144531 -135.363281 85.25 -135.0625 C 84.957031 -133.863281 84.507812 -132.738281 83.90625 -131.6875 C 83.3125 -130.644531 82.265625 -129.820312 80.765625 -129.21875 C 79.566406 -128.320312 78.441406 -127.273438 77.390625 -126.078125 C 76.347656 -124.890625 75.53125 -123.546875 74.9375 -122.046875 C 74.039062 -120.847656 73.140625 -119.648438 72.234375 -118.453125 C 71.335938 -117.253906 70.144531 -116.207031 68.65625 -115.3125 C 66.5625 -113.519531 64.691406 -111.578125 63.046875 -109.484375 C 61.398438 -107.390625 59.828125 -105.144531 58.328125 -102.75 C 57.429688 -101.550781 56.609375 -100.503906 55.859375 -99.609375 C 55.109375 -98.710938 54.285156 -97.816406 53.390625 -96.921875 C 51.597656 -94.523438 49.65625 -92.28125 47.5625 -90.1875 C 45.46875 -88.09375 44.125 -85.550781 43.53125 -82.5625 C 43.226562 -80.769531 42.03125 -79.875 39.9375 -79.875 C 39.632812 -79.875 39.109375 -79.945312 38.359375 -80.09375 C 37.617188 -80.238281 36.796875 -80.460938 35.890625 -80.765625 C 36.492188 -81.359375 37.09375 -82.03125 37.6875 -82.78125 C 38.289062 -83.53125 38.890625 -84.207031 39.484375 -84.8125 C 40.984375 -86 42.03125 -87.789062 42.625 -90.1875 C 43.226562 -92.582031 44.203125 -94.675781 45.546875 -96.46875 C 46.890625 -98.257812 48.160156 -99.90625 49.359375 -101.40625 L 58.78125 -112.171875 C 59.675781 -113.367188 60.5 -114.710938 61.25 -116.203125 C 62 -117.703125 63.117188 -118.753906 64.609375 -119.359375 C 66.109375 -120.253906 67.226562 -121.445312 67.96875 -122.9375 C 68.71875 -124.4375 69.84375 -125.335938 71.34375 -125.640625 C 71.9375 -125.640625 72.304688 -125.863281 72.453125 -126.3125 C 72.609375 -126.757812 72.835938 -127.132812 73.140625 -127.4375 C 73.734375 -129.226562 74.703125 -130.722656 76.046875 -131.921875 C 77.398438 -133.117188 78.675781 -134.164062 79.875 -135.0625 C 81.363281 -135.65625 82.40625 -136.625 83 -137.96875 C 83.601562 -139.320312 84.65625 -140.144531 86.15625 -140.4375 C 86.75 -141.9375 87.71875 -143.207031 89.0625 -144.25 C 90.414062 -145.300781 91.6875 -146.125 92.875 -146.71875 C 93.175781 -147.019531 93.328125 -148.066406 93.328125 -149.859375 C 89.742188 -147.765625 86.304688 -145.445312 83.015625 -142.90625 C 79.722656 -140.363281 76.429688 -137.445312 73.140625 -134.15625 C 71.046875 -132.0625 69.023438 -129.96875 67.078125 -127.875 C 65.140625 -125.78125 62.972656 -123.988281 60.578125 -122.5 C 59.679688 -121.894531 59.082031 -121.066406 58.78125 -120.015625 C 58.476562 -118.972656 57.582031 -118.15625 56.09375 -117.5625 C 55.1875 -116.664062 54.585938 -116.21875 54.296875 -116.21875 Z M 82.109375 -147.171875 C 82.410156 -147.171875 82.859375 -147.472656 83.453125 -148.078125 C 83.160156 -148.078125 82.9375 -148.148438 82.78125 -148.296875 C 82.632812 -148.441406 82.410156 -148.515625 82.109375 -148.515625 C 82.710938 -149.410156 83.3125 -150.304688 83.90625 -151.203125 C 84.507812 -152.109375 84.957031 -153.007812 85.25 -153.90625 L 82.109375 -153.90625 C 81.804688 -153.007812 81.0625 -151.960938 79.875 -150.765625 C 79.269531 -150.160156 78.664062 -149.5625 78.0625 -148.96875 C 77.46875 -148.375 77.023438 -147.773438 76.734375 -147.171875 L 80.3125 -147.171875 L 80.3125 -145.375 C 80.914062 -145.375 81.515625 -145.972656 82.109375 -147.171875 Z M 27.8125 -87.953125 C 27.519531 -87.953125 27.375 -87.875 27.375 -87.71875 C 27.375 -87.570312 27.222656 -87.5 26.921875 -87.5 C 26.023438 -86.601562 25.578125 -85.707031 25.578125 -84.8125 L 25.578125 -84.359375 C 25.878906 -84.054688 26.175781 -83.90625 26.46875 -83.90625 C 27.664062 -85.101562 28.265625 -86.148438 28.265625 -87.046875 C 28.265625 -87.347656 28.1875 -87.570312 28.03125 -87.71875 C 27.882812 -87.875 27.8125 -87.953125 27.8125 -87.953125 Z M 82.109375 -148.96875 L 82.109375 -147.171875 L 80.3125 -147.171875 C 80.3125 -147.773438 80.910156 -148.375 82.109375 -148.96875 Z M 17.5 -52.953125 C 18.09375 -53.546875 18.390625 -53.84375 18.390625 -53.84375 C 17.203125 -53.84375 16.90625 -53.546875 17.5 -52.953125 Z M 41.734375 -112.171875 L 41.734375 -111.734375 L 41.28125 -111.734375 Z M 51.15625 -121.15625 L 50.703125 -121.15625 C 50.703125 -121.15625 50.773438 -121.15625 50.921875 -121.15625 C 51.078125 -121.15625 51.15625 -121.15625 51.15625 -121.15625 Z M 51.15625 -121.15625 "/></g></g></g><g fill="#ffd21f" fill-opacity="1"><g transform="translate(363.247374, 403.45476)"><g><path d="M 70 -56.09375 C 69.695312 -54.59375 69.171875 -53.019531 68.421875 -51.375 C 67.679688 -49.726562 66.5625 -48.609375 65.0625 -48.015625 C 65.363281 -46.816406 65.289062 -45.84375 64.84375 -45.09375 C 64.394531 -44.34375 63.867188 -43.519531 63.265625 -42.625 C 61.171875 -39.632812 59.828125 -37.09375 59.234375 -35 C 58.628906 -33.800781 57.953125 -32.601562 57.203125 -31.40625 C 56.460938 -30.207031 55.941406 -28.863281 55.640625 -27.375 C 55.335938 -26.175781 54.515625 -24.976562 53.171875 -23.78125 C 51.828125 -22.582031 51.453125 -21.085938 52.046875 -19.296875 C 51.148438 -18.097656 50.175781 -16.972656 49.125 -15.921875 C 48.082031 -14.878906 47.265625 -13.609375 46.671875 -12.109375 C 46.367188 -11.210938 45.691406 -10.539062 44.640625 -10.09375 C 43.597656 -9.644531 42.773438 -9.125 42.171875 -8.53125 C 40.378906 -5.53125 36.414062 -1.9375 30.28125 2.25 C 24.15625 6.4375 19.445312 9.273438 16.15625 10.765625 C 14.957031 11.367188 13.757812 11.742188 12.5625 11.890625 C 11.363281 12.035156 10.164062 12.257812 8.96875 12.5625 C 6.875 12.5625 5.082031 11.8125 3.59375 10.3125 L 0.453125 7.171875 C -6.128906 1.492188 -9.421875 -5.832031 -9.421875 -14.8125 C -9.421875 -28.269531 -8.375 -39.707031 -6.28125 -49.125 C -4.1875 -58.550781 -1.195312 -69.394531 2.6875 -81.65625 C 3.289062 -82.851562 3.890625 -83.753906 4.484375 -84.359375 C 7.179688 -90.335938 10.25 -96.46875 13.6875 -102.75 C 17.125 -109.03125 21.238281 -114.265625 26.03125 -118.453125 C 27.519531 -119.648438 28.414062 -121.070312 28.71875 -122.71875 C 29.019531 -124.363281 30.066406 -125.632812 31.859375 -126.53125 C 34.253906 -127.425781 36.195312 -129.519531 37.6875 -132.8125 C 37.6875 -133.113281 37.988281 -133.5625 38.59375 -134.15625 C 40.976562 -135.0625 43.066406 -136.410156 44.859375 -138.203125 C 46.660156 -139.992188 48.457031 -141.640625 50.25 -143.140625 C 54.4375 -146.722656 58.921875 -149.257812 63.703125 -150.75 C 68.492188 -152.25 73.582031 -153.148438 78.96875 -153.453125 C 82.257812 -153.453125 85.550781 -153.300781 88.84375 -153 C 92.132812 -152.707031 95.273438 -151.8125 98.265625 -150.3125 C 98.859375 -150.007812 99.609375 -149.859375 100.515625 -149.859375 C 101.410156 -149.859375 102.003906 -150.007812 102.296875 -150.3125 C 103.796875 -151.207031 105.144531 -151.65625 106.34375 -151.65625 C 107.539062 -151.65625 108.660156 -151.351562 109.703125 -150.75 C 110.753906 -150.15625 111.878906 -149.5625 113.078125 -148.96875 C 113.671875 -145.976562 113.742188 -143.0625 113.296875 -140.21875 C 112.847656 -137.375 111.875 -134.609375 110.375 -131.921875 C 107.988281 -127.128906 105.597656 -120.84375 103.203125 -113.0625 C 100.804688 -105.289062 98.5625 -96.84375 96.46875 -87.71875 C 94.375 -78.59375 92.65625 -69.84375 91.3125 -61.46875 C 89.96875 -53.09375 89.296875 -45.914062 89.296875 -39.9375 C 89.296875 -32.457031 91.238281 -26.175781 95.125 -21.09375 C 96.019531 -20.789062 97.363281 -20.640625 99.15625 -20.640625 C 102.15625 -20.640625 104.847656 -21.238281 107.234375 -22.4375 C 111.421875 -24.53125 115.535156 -26.847656 119.578125 -29.390625 C 123.617188 -31.929688 127.582031 -34.550781 131.46875 -37.25 L 132.8125 -37.25 C 133.707031 -37.25 133.707031 -36.796875 132.8125 -35.890625 C 131.613281 -34.691406 130.117188 -33.5 128.328125 -32.3125 C 127.734375 -31.707031 127.4375 -30.878906 127.4375 -29.828125 C 127.4375 -28.785156 126.984375 -27.96875 126.078125 -27.375 C 124.890625 -26.175781 122.425781 -24.003906 118.6875 -20.859375 C 114.945312 -17.722656 111.128906 -14.882812 107.234375 -12.34375 C 103.347656 -9.800781 100.359375 -8.53125 98.265625 -8.53125 C 97.671875 -8.53125 96.773438 -8.828125 95.578125 -9.421875 C 95.273438 -9.722656 94.898438 -9.875 94.453125 -9.875 C 94.003906 -9.875 93.628906 -10.019531 93.328125 -10.3125 C 88.546875 -14.507812 84.429688 -18.925781 80.984375 -23.5625 C 77.546875 -28.195312 75.675781 -33.804688 75.375 -40.390625 C 75.082031 -41.878906 74.710938 -43.296875 74.265625 -44.640625 C 73.816406 -45.992188 73.59375 -47.265625 73.59375 -48.453125 L 73.59375 -56.984375 C 73.59375 -58.484375 73.21875 -59.378906 72.46875 -59.671875 C 71.71875 -59.972656 71.046875 -60.273438 70.453125 -60.578125 C 70.148438 -60.578125 69.921875 -60.648438 69.765625 -60.796875 C 69.617188 -60.953125 69.546875 -61.03125 69.546875 -61.03125 C 68.953125 -61.03125 68.65625 -60.429688 68.65625 -59.234375 L 68.65625 -58.328125 C 69.851562 -57.734375 70.300781 -56.988281 70 -56.09375 Z M 9.875 0.890625 C 16.75 -3.585938 23.398438 -8.441406 29.828125 -13.671875 C 36.265625 -18.910156 41.726562 -25.125 46.21875 -32.3125 C 47.707031 -35 49.273438 -37.613281 50.921875 -40.15625 C 52.566406 -42.695312 53.988281 -45.316406 55.1875 -48.015625 C 56.976562 -50.703125 58.769531 -53.390625 60.5625 -56.078125 C 62.363281 -58.773438 63.863281 -61.617188 65.0625 -64.609375 C 67.457031 -69.398438 69.703125 -74.035156 71.796875 -78.515625 C 73.890625 -83.003906 75.984375 -87.492188 78.078125 -91.984375 C 79.566406 -94.972656 81.359375 -99.535156 83.453125 -105.671875 C 85.546875 -111.804688 86.742188 -116.367188 87.046875 -119.359375 C 87.648438 -122.347656 88.546875 -125.1875 89.734375 -127.875 C 90.929688 -130.570312 92.128906 -133.265625 93.328125 -135.953125 C 94.523438 -138.648438 93.925781 -140.894531 91.53125 -142.6875 C 90.632812 -143.582031 89.890625 -144.03125 89.296875 -144.03125 C 88.992188 -144.03125 88.09375 -143.582031 86.59375 -142.6875 C 83.007812 -139.09375 78.972656 -136.398438 74.484375 -134.609375 C 70.597656 -133.117188 66.929688 -131.175781 63.484375 -128.78125 C 60.046875 -126.382812 56.679688 -123.988281 53.390625 -121.59375 C 51.296875 -120.101562 49.425781 -118.3125 47.78125 -116.21875 C 46.132812 -114.125 44.414062 -112.328125 42.625 -110.828125 C 40.53125 -109.035156 38.734375 -107.015625 37.234375 -104.765625 C 35.742188 -102.523438 33.800781 -100.65625 31.40625 -99.15625 C 31.101562 -98.863281 30.953125 -98.566406 30.953125 -98.265625 C 30.953125 -97.960938 30.804688 -97.664062 30.515625 -97.375 C 30.210938 -95.28125 29.390625 -93.410156 28.046875 -91.765625 C 26.703125 -90.117188 25.578125 -88.25 24.671875 -86.15625 C 24.378906 -85.257812 23.929688 -84.4375 23.328125 -83.6875 C 22.734375 -82.9375 22.132812 -82.113281 21.53125 -81.21875 C 20.34375 -79.125 19.375 -76.804688 18.625 -74.265625 C 17.875 -71.722656 16.898438 -69.253906 15.703125 -66.859375 C 13.910156 -62.972656 12.5625 -59.007812 11.65625 -54.96875 C 10.757812 -50.925781 9.566406 -46.8125 8.078125 -42.625 C 7.773438 -41.425781 7.546875 -40.226562 7.390625 -39.03125 C 7.242188 -37.84375 6.875 -36.648438 6.28125 -35.453125 C 5.976562 -32.160156 5.675781 -28.941406 5.375 -25.796875 C 5.082031 -22.660156 4.488281 -19.445312 3.59375 -16.15625 C 2.988281 -14.65625 2.988281 -13.457031 3.59375 -12.5625 C 4.1875 -11.0625 4.554688 -9.488281 4.703125 -7.84375 C 4.859375 -6.207031 4.9375 -4.640625 4.9375 -3.140625 C 4.9375 -1.640625 5.234375 -0.59375 5.828125 0 C 5.828125 0 6.425781 0.597656 7.625 1.796875 C 8.226562 1.492188 8.675781 1.34375 8.96875 1.34375 C 9.269531 1.34375 9.570312 1.191406 9.875 0.890625 Z M 65.0625 -52.953125 C 65.0625 -52.648438 65.132812 -52.5 65.28125 -52.5 C 65.4375 -52.5 65.515625 -52.347656 65.515625 -52.046875 C 66.109375 -52.648438 66.40625 -53.097656 66.40625 -53.390625 L 65.515625 -54.296875 C 65.515625 -53.691406 65.363281 -53.242188 65.0625 -52.953125 Z M 13.90625 -95.578125 L 14.359375 -95.125 L 14.359375 -95.578125 Z M 73.140625 -67.75 L 72.6875 -68.203125 L 72.6875 -67.75 Z M 12.5625 -92.4375 L 12.109375 -91.984375 L 12.5625 -91.984375 Z M 56.984375 -38.140625 L 56.984375 -39.03125 Z M 56.984375 -38.140625 "/></g></g></g><g fill="#ffd21f" fill-opacity="1"><g transform="translate(491.12651, 403.45476)"><g><path d="M 48.90625 -113.96875 C 48.90625 -113.375 49.351562 -112.773438 50.25 -112.171875 C 50.851562 -112.171875 51.898438 -112.921875 53.390625 -114.421875 L 53.390625 -115.3125 C 53.097656 -115.3125 52.875 -115.382812 52.71875 -115.53125 C 52.570312 -115.6875 52.5 -115.765625 52.5 -115.765625 C 51.300781 -115.460938 50.101562 -114.863281 48.90625 -113.96875 Z M 19.75 -9.421875 C 20.34375 -11.816406 21.910156 -14.285156 24.453125 -16.828125 C 26.992188 -19.367188 29.613281 -20.640625 32.3125 -20.640625 C 33.5 -20.640625 34.546875 -20.34375 35.453125 -19.75 C 36.648438 -18.84375 37.695312 -17.863281 38.59375 -16.8125 C 39.488281 -15.769531 39.9375 -14.503906 39.9375 -13.015625 C 40.238281 -11.816406 40.613281 -10.84375 41.0625 -10.09375 C 41.507812 -9.34375 41.878906 -8.671875 42.171875 -8.078125 C 43.367188 -5.085938 43.367188 -1.945312 42.171875 1.34375 C 40.984375 4.632812 38.890625 7.03125 35.890625 8.53125 C 35.597656 8.820312 34.851562 8.96875 33.65625 8.96875 C 32.15625 8.96875 30.660156 8.519531 29.171875 7.625 C 27.078125 4.332031 24.53125 1.191406 21.53125 -1.796875 C 20.632812 -2.691406 20.257812 -3.960938 20.40625 -5.609375 C 20.5625 -7.253906 20.34375 -8.523438 19.75 -9.421875 Z M 39.9375 -113.96875 L 39.9375 -114.421875 C 39.9375 -116.210938 40.832031 -117.554688 42.625 -118.453125 L 43.078125 -118.453125 C 43.378906 -118.453125 43.53125 -118.15625 43.53125 -117.5625 C 43.53125 -116.0625 42.332031 -114.863281 39.9375 -113.96875 Z M 58.78125 -134.609375 C 58.78125 -133.710938 58.332031 -132.515625 57.4375 -131.015625 C 55.632812 -128.921875 53.390625 -126.679688 50.703125 -124.296875 C 50.109375 -123.691406 49.0625 -123.390625 47.5625 -123.390625 C 49.0625 -125.785156 50.78125 -127.953125 52.71875 -129.890625 C 54.664062 -131.835938 56.6875 -133.410156 58.78125 -134.609375 Z M 68.203125 -144.03125 L 68.65625 -144.03125 L 68.203125 -144.03125 C 67.609375 -141.632812 66.5625 -140.289062 65.0625 -140 C 65.363281 -141.789062 65.660156 -142.832031 65.953125 -143.125 C 66.253906 -143.425781 67.003906 -143.726562 68.203125 -144.03125 Z M 37.6875 -112.171875 C 38.289062 -110.378906 37.691406 -108.882812 35.890625 -107.6875 C 34.398438 -106.488281 33.203125 -105.140625 32.296875 -103.640625 C 31.398438 -102.148438 30.65625 -100.507812 30.0625 -98.71875 C 30.65625 -98.113281 31.101562 -97.960938 31.40625 -98.265625 C 34.695312 -101.253906 37.390625 -104.097656 39.484375 -106.796875 C 40.378906 -108.285156 41.347656 -109.476562 42.390625 -110.375 C 43.441406 -111.28125 44.414062 -112.179688 45.3125 -113.078125 C 45.914062 -113.671875 46.585938 -113.96875 47.328125 -113.96875 C 48.078125 -113.96875 48.601562 -114.117188 48.90625 -114.421875 C 48.90625 -115.910156 49.351562 -117.109375 50.25 -118.015625 C 52.050781 -119.804688 53.769531 -121.671875 55.40625 -123.609375 C 57.050781 -125.554688 58.773438 -127.425781 60.578125 -129.21875 C 62.066406 -131.019531 63.484375 -132.519531 64.828125 -133.71875 C 66.179688 -134.914062 67.457031 -136.410156 68.65625 -138.203125 C 70.144531 -139.992188 71.863281 -141.710938 73.8125 -143.359375 C 75.757812 -145.003906 77.328125 -146.875 78.515625 -148.96875 C 78.515625 -149.5625 78.664062 -149.859375 78.96875 -149.859375 C 82.257812 -151.054688 84.726562 -153 86.375 -155.6875 C 88.019531 -158.382812 89.890625 -160.78125 91.984375 -162.875 C 94.378906 -164.96875 96.472656 -167.285156 98.265625 -169.828125 C 100.054688 -172.367188 101.703125 -174.6875 103.203125 -176.78125 C 104.398438 -178.28125 105.519531 -179.476562 106.5625 -180.375 C 107.613281 -181.269531 108.585938 -182.316406 109.484375 -183.515625 C 111.578125 -186.804688 113.519531 -190.097656 115.3125 -193.390625 C 117.113281 -196.679688 118.910156 -199.820312 120.703125 -202.8125 C 121.296875 -203.707031 121.59375 -204.53125 121.59375 -205.28125 C 121.59375 -206.03125 121.742188 -206.703125 122.046875 -207.296875 C 122.347656 -207.898438 122.796875 -208.273438 123.390625 -208.421875 C 123.992188 -208.566406 124.441406 -208.941406 124.734375 -209.546875 C 125.929688 -211.035156 126.976562 -212.976562 127.875 -215.375 C 132.0625 -221.0625 135.578125 -227.117188 138.421875 -233.546875 C 141.265625 -239.984375 143.882812 -246.488281 146.28125 -253.0625 C 146.875 -254.5625 147.394531 -256.28125 147.84375 -258.21875 C 148.289062 -260.164062 148.664062 -262.1875 148.96875 -264.28125 C 149.269531 -265.78125 149.492188 -267.425781 149.640625 -269.21875 C 149.785156 -271.007812 149.5625 -272.65625 148.96875 -274.15625 C 148.96875 -275.945312 148.816406 -277.890625 148.515625 -279.984375 C 148.222656 -282.078125 147.773438 -283.875 147.171875 -285.375 C 141.785156 -295.539062 134.304688 -302.421875 124.734375 -306.015625 C 123.242188 -306.609375 121.675781 -306.976562 120.03125 -307.125 C 118.382812 -307.28125 116.664062 -307.507812 114.875 -307.8125 C 106.488281 -307.8125 99.15625 -306.910156 92.875 -305.109375 C 86.59375 -303.316406 80.015625 -299.878906 73.140625 -294.796875 C 67.753906 -290.015625 62.890625 -284.929688 58.546875 -279.546875 C 54.210938 -274.160156 50.703125 -268.023438 48.015625 -261.140625 L 38.59375 -235.5625 C 38.289062 -233.769531 37.988281 -231.976562 37.6875 -230.1875 C 37.394531 -228.394531 36.796875 -226.597656 35.890625 -224.796875 C 35.890625 -223.304688 36.039062 -222.257812 36.34375 -221.65625 C 37.539062 -219.5625 38.140625 -217.539062 38.140625 -215.59375 C 38.140625 -213.65625 37.988281 -211.789062 37.6875 -210 C 37.6875 -207.90625 37.613281 -205.957031 37.46875 -204.15625 C 37.320312 -202.363281 37.546875 -200.570312 38.140625 -198.78125 C 38.441406 -197.582031 38.140625 -196.304688 37.234375 -194.953125 C 36.335938 -193.609375 35.441406 -192.789062 34.546875 -192.5 C 32.753906 -191.894531 31.410156 -191.59375 30.515625 -191.59375 C 29.617188 -191.59375 28.71875 -192.039062 27.8125 -192.9375 C 25.125 -195.332031 23.03125 -198.625 21.53125 -202.8125 C 21.238281 -204.90625 21.015625 -207 20.859375 -209.09375 C 20.710938 -211.1875 21.085938 -213.429688 21.984375 -215.828125 C 22.878906 -218.222656 23.703125 -220.765625 24.453125 -223.453125 C 25.203125 -226.148438 25.578125 -228.84375 25.578125 -231.53125 C 25.273438 -233.320312 25.5 -234.960938 26.25 -236.453125 C 27 -237.953125 27.519531 -239.453125 27.8125 -240.953125 C 29.90625 -246.929688 32.070312 -252.835938 34.3125 -258.671875 C 36.5625 -264.503906 39.484375 -269.816406 43.078125 -274.609375 C 43.671875 -275.503906 44.117188 -276.328125 44.421875 -277.078125 C 44.722656 -277.828125 45.019531 -278.347656 45.3125 -278.640625 C 46.8125 -281.628906 48.679688 -284.394531 50.921875 -286.9375 C 53.171875 -289.488281 55.34375 -291.8125 57.4375 -293.90625 C 60.726562 -297.195312 64.242188 -300.257812 67.984375 -303.09375 C 71.722656 -305.9375 75.535156 -308.253906 79.421875 -310.046875 C 81.515625 -311.242188 83.679688 -312.289062 85.921875 -313.1875 C 88.171875 -314.09375 90.488281 -314.992188 92.875 -315.890625 C 93.175781 -315.890625 93.476562 -315.960938 93.78125 -316.109375 C 94.082031 -316.253906 94.378906 -316.328125 94.671875 -316.328125 C 100.359375 -317.828125 105.742188 -318.726562 110.828125 -319.03125 L 122.9375 -319.03125 C 127.425781 -319.03125 131.617188 -318.429688 135.515625 -317.234375 L 143.578125 -313.1875 C 144.179688 -312.894531 144.707031 -312.671875 145.15625 -312.515625 C 145.601562 -312.367188 145.976562 -312.144531 146.28125 -311.84375 C 147.769531 -310.050781 149.335938 -308.40625 150.984375 -306.90625 C 152.628906 -305.414062 154.351562 -303.773438 156.15625 -301.984375 C 157.644531 -300.785156 158.988281 -299.140625 160.1875 -297.046875 C 161.382812 -294.953125 162.582031 -292.707031 163.78125 -290.3125 C 164.675781 -287.613281 165.570312 -284.992188 166.46875 -282.453125 C 167.363281 -279.910156 167.660156 -276.992188 167.359375 -273.703125 C 168.554688 -272.210938 168.929688 -270.492188 168.484375 -268.546875 C 168.035156 -266.597656 168.113281 -264.878906 168.71875 -263.390625 C 168.71875 -261.597656 168.265625 -259.351562 167.359375 -256.65625 C 165.265625 -252.769531 163.921875 -248.285156 163.328125 -243.203125 C 163.921875 -242.003906 163.769531 -240.957031 162.875 -240.0625 C 162.582031 -239.757812 161.535156 -237.738281 159.734375 -234 C 157.941406 -230.257812 156.144531 -226.59375 154.34375 -223 C 152.550781 -219.414062 151.507812 -217.320312 151.21875 -216.71875 C 150.613281 -214.03125 150.015625 -212.238281 149.421875 -211.34375 C 147.328125 -208.945312 145.53125 -206.476562 144.03125 -203.9375 C 142.539062 -201.394531 140.894531 -198.925781 139.09375 -196.53125 C 136.40625 -193.84375 134.015625 -190.703125 131.921875 -187.109375 C 130.421875 -183.816406 127.726562 -180 123.84375 -175.65625 C 119.957031 -171.320312 116.664062 -167.8125 113.96875 -165.125 C 113.664062 -164.226562 113.140625 -163.328125 112.390625 -162.421875 C 111.648438 -161.523438 110.976562 -160.628906 110.375 -159.734375 C 105.894531 -155.847656 101.707031 -151.507812 97.8125 -146.71875 C 93.925781 -141.9375 89.890625 -137.453125 85.703125 -133.265625 C 82.109375 -129.671875 78.59375 -126.003906 75.15625 -122.265625 C 71.71875 -118.523438 68.351562 -115.015625 65.0625 -111.734375 C 62.96875 -109.335938 60.648438 -107.09375 58.109375 -105 C 55.566406 -102.90625 53.394531 -100.363281 51.59375 -97.375 C 50.695312 -95.570312 49.5 -94 48 -92.65625 C 46.507812 -91.3125 45.019531 -89.890625 43.53125 -88.390625 L 40.390625 -85.25 C 38.890625 -82.5625 39.1875 -80.46875 41.28125 -78.96875 C 42.175781 -77.769531 43.144531 -76.796875 44.1875 -76.046875 C 45.238281 -75.304688 46.210938 -74.488281 47.109375 -73.59375 C 46.210938 -73.289062 45.019531 -73.140625 43.53125 -73.140625 C 41.726562 -73.140625 40.003906 -73.4375 38.359375 -74.03125 C 36.710938 -74.632812 35.144531 -75.234375 33.65625 -75.828125 C 32.15625 -76.429688 30.957031 -77.476562 30.0625 -78.96875 C 29.757812 -80.46875 29.234375 -82.039062 28.484375 -83.6875 C 27.742188 -85.332031 27.070312 -86.898438 26.46875 -88.390625 C 25.570312 -89.890625 25.125 -91.382812 25.125 -92.875 C 25.125 -94.375 25.125 -95.875 25.125 -97.375 C 25.125 -98.863281 25.722656 -100.359375 26.921875 -101.859375 C 28.421875 -103.347656 30.066406 -105.140625 31.859375 -107.234375 C 33.648438 -109.328125 35.59375 -110.972656 37.6875 -112.171875 Z M 131.015625 -197.421875 C 131.015625 -197.128906 130.941406 -196.90625 130.796875 -196.75 C 130.648438 -196.601562 130.578125 -196.53125 130.578125 -196.53125 C 130.578125 -196.226562 130.648438 -195.925781 130.796875 -195.625 C 130.941406 -195.332031 131.015625 -195.035156 131.015625 -194.734375 C 131.015625 -195.035156 131.085938 -195.1875 131.234375 -195.1875 C 131.390625 -195.1875 131.46875 -195.335938 131.46875 -195.640625 C 131.46875 -196.234375 131.316406 -196.828125 131.015625 -197.421875 Z M 97.375 -165.578125 L 96.46875 -165.125 L 96.921875 -165.125 Z M 108.59375 -178.140625 L 109.03125 -178.578125 Z M 43.53125 -105.4375 L 43.96875 -105.4375 L 43.53125 -105.890625 Z M 57.4375 -120.703125 L 56.984375 -121.15625 L 56.984375 -120.703125 Z M 89.734375 -166.015625 C 90.035156 -166.316406 90.1875 -166.46875 90.1875 -166.46875 C 90.1875 -166.46875 90.109375 -166.390625 89.953125 -166.234375 C 89.804688 -166.085938 89.734375 -166.015625 89.734375 -166.015625 Z M 87.5 -164.21875 C 87.5 -165.414062 88.242188 -166.015625 89.734375 -166.015625 C 88.835938 -165.117188 88.09375 -164.519531 87.5 -164.21875 Z M 87.5 -164.21875 C 87.195312 -163.925781 87.046875 -163.78125 87.046875 -163.78125 C 87.046875 -163.78125 86.894531 -163.628906 86.59375 -163.328125 C 86.300781 -163.921875 86.300781 -164.144531 86.59375 -164 C 86.894531 -163.851562 87.195312 -163.925781 87.5 -164.21875 Z M 83.453125 -159.734375 L 83.015625 -159.296875 L 83.015625 -159.734375 Z M 74.03125 -149.859375 L 74.03125 -148.96875 C 74.632812 -150.164062 74.9375 -150.765625 74.9375 -150.765625 C 75.53125 -149.867188 75.601562 -149.492188 75.15625 -149.640625 C 74.707031 -149.785156 74.332031 -149.859375 74.03125 -149.859375 Z M 72.234375 -147.625 C 72.835938 -148.519531 73.4375 -148.96875 74.03125 -148.96875 L 74.03125 -149.859375 C 74.03125 -148.367188 73.429688 -147.625 72.234375 -147.625 Z M 70.453125 -145.828125 C 70.742188 -146.722656 71.335938 -147.320312 72.234375 -147.625 C 72.234375 -146.425781 71.640625 -145.828125 70.453125 -145.828125 Z M 68.203125 -144.03125 L 68.65625 -144.03125 C 68.65625 -144.925781 69.253906 -145.523438 70.453125 -145.828125 C 69.847656 -144.628906 69.097656 -144.03125 68.203125 -144.03125 Z M 65.0625 -140 C 64.164062 -139.101562 63.414062 -138.65625 62.8125 -138.65625 L 62.8125 -138.203125 C 63.113281 -139.398438 63.863281 -140 65.0625 -140 Z M 62.8125 -138.203125 L 62.8125 -138.65625 C 62.519531 -137.15625 61.925781 -136.40625 61.03125 -136.40625 C 61.320312 -137.601562 61.914062 -138.203125 62.8125 -138.203125 Z M 61.03125 -136.40625 C 61.03125 -135.207031 60.28125 -134.609375 58.78125 -134.609375 C 59.082031 -135.503906 59.832031 -136.101562 61.03125 -136.40625 Z M 39.9375 -113.96875 L 39.9375 -114.421875 C 39.632812 -112.921875 38.882812 -112.171875 37.6875 -112.171875 C 37.6875 -113.367188 38.4375 -113.96875 39.9375 -113.96875 Z M 47.5625 -123.390625 C 47.5625 -123.085938 47.484375 -122.863281 47.328125 -122.71875 C 47.179688 -122.570312 47.109375 -122.347656 47.109375 -122.046875 C 46.816406 -122.640625 46.816406 -122.9375 47.109375 -122.9375 C 47.410156 -122.9375 47.5625 -123.085938 47.5625 -123.390625 Z M 47.5625 -123.390625 "/></g></g></g></g></g></svg>